<?xml version="1.0" encoding="UTF-8"?>
<svg xmlns="http://www.w3.org/2000/svg" xmlns:xlink="http://www.w3.org/1999/xlink" viewBox="0 0 48 48" version="1.1" width="48px" height="48px">
<g id="surface1">
<path style=" fill:#FFECB3;" d="M 30 10 L 18 6 L 6 10 L 6 42 L 18 38 L 30 42 L 42 38 L 42 6 Z "/>
<path style=" fill:#FFE082;" d="M 18 6 L 18 38 L 30 42 L 30 10 Z "/>
<path style=" fill:#1565C0;" d="M 14.621094 33.03125 C 14.621094 34.410156 13.503906 35.53125 12.121094 35.53125 C 10.742188 35.53125 9.621094 34.410156 9.621094 33.03125 C 9.621094 31.648438 10.742188 30.53125 12.121094 30.53125 C 13.503906 30.53125 14.621094 31.648438 14.621094 33.03125 Z "/>
<path style=" fill:#1565C0;" d="M 38.378906 30.0625 C 38.378906 31.441406 37.257813 32.5625 35.878906 32.5625 C 34.496094 32.5625 33.378906 31.441406 33.378906 30.0625 C 33.378906 28.679688 34.496094 27.5625 35.878906 27.5625 C 37.257813 27.5625 38.378906 28.679688 38.378906 30.0625 Z "/>
<path style=" fill:#1565C0;" d="M 22.046875 16.699219 C 22.046875 18.078125 20.925781 19.199219 19.546875 19.199219 C 18.164063 19.199219 17.046875 18.078125 17.046875 16.699219 C 17.046875 15.316406 18.164063 14.199219 19.546875 14.199219 C 20.925781 14.199219 22.046875 15.316406 22.046875 16.699219 Z "/>
<path style=" fill:#8D6E63;" d="M 26.96875 15.214844 C 26.96875 16.035156 26.304688 16.699219 25.484375 16.699219 C 24.664063 16.699219 24 16.035156 24 15.214844 C 24 14.394531 24.664063 13.730469 25.484375 13.730469 C 26.304688 13.730469 26.96875 14.394531 26.96875 15.214844 Z "/>
<path style=" fill:#8D6E63;" d="M 31.421875 15.214844 C 31.421875 16.035156 30.757813 16.699219 29.9375 16.699219 C 29.117188 16.699219 28.453125 16.035156 28.453125 15.214844 C 28.453125 14.394531 29.117188 13.730469 29.9375 13.730469 C 30.757813 13.730469 31.421875 14.394531 31.421875 15.214844 Z "/>
<path style=" fill:#8D6E63;" d="M 35.878906 16.699219 C 35.878906 17.519531 35.210938 18.183594 34.394531 18.183594 C 33.574219 18.183594 32.910156 17.519531 32.910156 16.699219 C 32.910156 15.878906 33.574219 15.214844 34.394531 15.214844 C 35.210938 15.214844 35.878906 15.878906 35.878906 16.699219 Z "/>
<path style=" fill:#8D6E63;" d="M 38.84375 19.667969 C 38.84375 20.488281 38.179688 21.152344 37.359375 21.152344 C 36.542969 21.152344 35.878906 20.488281 35.878906 19.667969 C 35.878906 18.847656 36.542969 18.183594 37.359375 18.183594 C 38.179688 18.183594 38.84375 18.847656 38.84375 19.667969 Z "/>
<path style=" fill:#8D6E63;" d="M 38.847656 24.121094 C 38.847656 24.941406 38.179688 25.609375 37.359375 25.609375 C 36.539063 25.609375 35.875 24.941406 35.875 24.121094 C 35.875 23.304688 36.539063 22.636719 37.359375 22.636719 C 38.179688 22.636719 38.847656 23.304688 38.847656 24.121094 Z "/>
<path style=" fill:#8D6E63;" d="M 31.421875 31.546875 C 31.421875 32.367188 30.757813 33.03125 29.9375 33.03125 C 29.117188 33.03125 28.453125 32.367188 28.453125 31.546875 C 28.453125 30.726563 29.117188 30.0625 29.9375 30.0625 C 30.757813 30.0625 31.421875 30.726563 31.421875 31.546875 Z "/>
<path style=" fill:#8D6E63;" d="M 26.96875 30.0625 C 26.96875 30.882813 26.304688 31.546875 25.484375 31.546875 C 24.664063 31.546875 24 30.882813 24 30.0625 C 24 29.242188 24.664063 28.578125 25.484375 28.578125 C 26.304688 28.578125 26.96875 29.242188 26.96875 30.0625 Z "/>
<path style=" fill:#8D6E63;" d="M 24 27.09375 C 24 27.914063 23.335938 28.578125 22.515625 28.578125 C 21.695313 28.578125 21.03125 27.914063 21.03125 27.09375 C 21.03125 26.273438 21.695313 25.605469 22.515625 25.605469 C 23.335938 25.605469 24 26.273438 24 27.09375 Z "/>
<path style=" fill:#8D6E63;" d="M 20.09375 26.425781 C 20.09375 27.242188 19.429688 27.90625 18.609375 27.90625 C 17.789063 27.90625 17.125 27.242188 17.125 26.425781 C 17.125 25.605469 17.789063 24.941406 18.609375 24.941406 C 19.429688 24.941406 20.09375 25.605469 20.09375 26.425781 Z "/>
<path style=" fill:#8D6E63;" d="M 16.574219 28.578125 C 16.574219 29.398438 15.910156 30.0625 15.09375 30.0625 C 14.273438 30.0625 13.609375 29.398438 13.609375 28.578125 C 13.609375 27.757813 14.273438 27.09375 15.09375 27.09375 C 15.910156 27.09375 16.574219 27.757813 16.574219 28.578125 Z "/>
<path style=" fill:#8D6E63;" d="M 15.089844 18.183594 C 15.089844 19.003906 14.425781 19.667969 13.605469 19.667969 C 12.789063 19.667969 12.121094 19.003906 12.121094 18.183594 C 12.121094 17.367188 12.789063 16.699219 13.605469 16.699219 C 14.425781 16.699219 15.089844 17.367188 15.089844 18.183594 Z "/>
</g>
</svg>
